
<svg xmlns="http://www.w3.org/2000/svg" xmlns:xlink="http://www.w3.org/1999/xlink" viewBox="0 0 25 24" width="25" height="24" fill="none">
  <g opacity="100%">
    <rect filter="url(#filter_dshadow_0_0_0_00000014)" x="0" y="0" width="25" height="24" fill="#fff" rx="12"></rect>
    <svg xmlns="http://www.w3.org/2000/svg" height="14" width="14" viewBox="0 0 24 24" fill="#000" x="5.5" y="5">
      <path d="M0 0h24v24H0z" fill="none"></path>
      <path d="M4.5 7a2.5 2.5 0 1 0 0 5 2.5 2.5 0 1 0 0-5zM9 3a2.5 2.5 0 1 0 0 5 2.5 2.5 0 1 0 0-5zM15 3a2.5 2.5 0 1 0 0 5 2.5 2.5 0 1 0 0-5zM19.5 7a2.5 2.5 0 1 0 0 5 2.5 2.5 0 1 0 0-5zM17.34 14.86c-.87-1.02-1.6-1.89-2.48-2.91-.46-.54-1.05-1.08-1.75-1.32-.11-.04-.22-.07-.33-.09-.25-.04-.52-.04-.78-.04s-.53 0-.79.05c-.11.02-.22.05-.33.09-.7.24-1.28.78-1.75 1.32-.87 1.02-1.6 1.89-2.48 2.91-1.31 1.31-2.92 2.76-2.62 4.79.29 1.02 1.02 2.03 2.33 2.32.73.15 3.06-.44 5.54-.44h.18c2.48 0 4.81.58 5.54.44 1.31-.29 2.04-1.31 2.33-2.32.31-2.04-1.3-3.49-2.61-4.8z"></path>
    </svg>
  </g>
  <defs>
    <filter id="filter_dshadow_0_0_0_00000014" color-interpolation-filters="sRGB" filterUnits="userSpaceOnUse">
      <feFlood flood-opacity="0" result="bg-fix"></feFlood>
      <feColorMatrix in="SourceAlpha" type="matrix" values="0 0 0 0 0 0 0 0 0 0 0 0 0 0 0 0 0 0 127 0" result="alpha"></feColorMatrix>
      <feOffset dx="0" dy="0"></feOffset>
      <feGaussianBlur stdDeviation="0"></feGaussianBlur>
      <feComposite in2="alpha" operator="out"></feComposite>
      <feColorMatrix type="matrix" values="0 0 0 0 0 0 0 0 0 0 0 0 0 0 0 0 0 0 0.08 0"></feColorMatrix>
      <feBlend mode="normal" in2="bg-fix" result="bg-fix-filter_dshadow_0_0_0_00000014"></feBlend>
      <feBlend in="SourceGraphic" in2="bg-fix-filter_dshadow_0_0_0_00000014" result="shape"></feBlend>
    </filter>
  </defs>
</svg>